<svg xmlns="http://www.w3.org/2000/svg" width="900" height="620" viewBox="0 0 900 620" style="font-family:sans-serif;background:#0d1117">

  <!-- Section labels -->
  <text x="80" y="44" font-size="13" fill="#6e7681" font-weight="500">Data Analysis</text>
  <line x1="60" y1="52" x2="340" y2="52" stroke="#30363d" stroke-width="1"/>

  <text x="590" y="44" font-size="13" fill="#6e7681" font-weight="500">Business Analysis</text>
  <line x1="570" y1="52" x2="860" y2="52" stroke="#30363d" stroke-width="1"/>

  <text x="330" y="435" font-size="13" fill="#6e7681" font-weight="500">Technical Knowledge</text>
  <line x1="60" y1="443" x2="840" y2="443" stroke="#30363d" stroke-width="1"/>

  <!-- Connector lines -->
  <path d="M 328 120 C 420 120 400 295 450 310" fill="none" stroke="#7C71D8" stroke-width="1.4" opacity="0.7"/>
  <path d="M 328 240 C 400 240 415 295 450 312" fill="none" stroke="#7C71D8" stroke-width="1.4" opacity="0.7"/>
  <path d="M 328 360 C 405 360 420 325 450 318" fill="none" stroke="#7C71D8" stroke-width="1.4" opacity="0.7"/>

  <path d="M 572 120 C 510 120 530 290 520 308" fill="none" stroke="#C0603A" stroke-width="1.4" opacity="0.7"/>
  <path d="M 572 240 C 535 240 528 292 520 310" fill="none" stroke="#C0603A" stroke-width="1.4" opacity="0.7"/>
  <path d="M 572 360 C 538 355 530 325 520 318" fill="none" stroke="#C0603A" stroke-width="1.4" opacity="0.7"/>

  <path d="M 174 448 C 280 448 370 370 480 342" fill="none" stroke="#2F81C6" stroke-width="1.4" opacity="0.6"/>
  <path d="M 450 448 C 450 420 472 390 483 345" fill="none" stroke="#2F81C6" stroke-width="1.4" opacity="0.6"/>
  <path d="M 726 448 C 640 445 555 385 520 345" fill="none" stroke="#2F81C6" stroke-width="1.4" opacity="0.6"/>

  <!-- Excel -->
  <a href="https://github.com" target="_blank">
    <rect x="60" y="88" width="268" height="64" rx="10" fill="#312e81" stroke="#4f46e5" stroke-width="1"/>
    <text x="194" y="116" text-anchor="middle" font-size="17" font-weight="700" fill="#e0e7ff">Excel</text>
    <text x="194" y="138" text-anchor="middle" font-size="12" fill="#a5b4fc">Pivot tables · XLOOKUP · Dashboards</text>
  </a>

  <!-- SQL -->
  <a href="https://github.com" target="_blank">
    <rect x="60" y="208" width="268" height="64" rx="10" fill="#312e81" stroke="#4f46e5" stroke-width="1"/>
    <text x="194" y="236" text-anchor="middle" font-size="17" font-weight="700" fill="#e0e7ff">SQL</text>
    <text x="194" y="258" text-anchor="middle" font-size="12" fill="#a5b4fc">Joins · Aggregations · Extraction</text>
  </a>

  <!-- Visualization -->
  <a href="https://github.com" target="_blank">
    <rect x="60" y="328" width="268" height="64" rx="10" fill="#312e81" stroke="#4f46e5" stroke-width="1"/>
    <text x="194" y="356" text-anchor="middle" font-size="17" font-weight="700" fill="#e0e7ff">Visualization</text>
    <text x="194" y="378" text-anchor="middle" font-size="12" fill="#a5b4fc">Tableau · Power BI</text>
  </a>

  <!-- Requirements -->
  <a href="https://github.com" target="_blank">
    <rect x="572" y="88" width="268" height="64" rx="10" fill="#6b1c07" stroke="#c2410c" stroke-width="1"/>
    <text x="706" y="116" text-anchor="middle" font-size="17" font-weight="700" fill="#fed7aa">Requirements</text>
    <text x="706" y="138" text-anchor="middle" font-size="12" fill="#fdba74">Gathering · User stories</text>
  </a>

  <!-- Stakeholder Comms -->
  <a href="https://github.com" target="_blank">
    <rect x="572" y="208" width="268" height="64" rx="10" fill="#6b1c07" stroke="#c2410c" stroke-width="1"/>
    <text x="706" y="236" text-anchor="middle" font-size="17" font-weight="700" fill="#fed7aa">Stakeholder Comms</text>
    <text x="706" y="258" text-anchor="middle" font-size="12" fill="#fdba74">Facilitation · Alignment</text>
  </a>

  <!-- Process Mapping -->
  <a href="https://github.com" target="_blank">
    <rect x="572" y="328" width="268" height="64" rx="10" fill="#6b1c07" stroke="#c2410c" stroke-width="1"/>
    <text x="706" y="356" text-anchor="middle" font-size="17" font-weight="700" fill="#fed7aa">Process Mapping</text>
    <text x="706" y="378" text-anchor="middle" font-size="12" fill="#fdba74">AS-IS → TO-BE · Gap analysis</text>
  </a>

  <!-- Center node -->
  <rect x="368" y="272" width="264" height="72" rx="12" fill="#064e3b" stroke="#059669" stroke-width="1.5"/>
  <text x="500" y="302" text-anchor="middle" font-size="18" font-weight="700" fill="#d1fae5">Business Analyst</text>
  <text x="500" y="326" text-anchor="middle" font-size="13" fill="#6ee7b7">Where all skills converge</text>

  <!-- ERP / SAP -->
  <a href="https://github.com" target="_blank">
    <rect x="48" y="458" width="252" height="64" rx="10" fill="#0c2d4e" stroke="#1d6fa4" stroke-width="1"/>
    <text x="174" y="486" text-anchor="middle" font-size="17" font-weight="700" fill="#bae6fd">ERP / SAP</text>
    <text x="174" y="508" text-anchor="middle" font-size="12" fill="#7dd3fc">Enterprise systems · Modules</text>
  </a>

  <!-- APIs & Integrations -->
  <a href="https://github.com" target="_blank">
    <rect x="324" y="458" width="252" height="64" rx="10" fill="#0c2d4e" stroke="#1d6fa4" stroke-width="1"/>
    <text x="450" y="486" text-anchor="middle" font-size="17" font-weight="700" fill="#bae6fd">APIs &amp; Integrations</text>
    <text x="450" y="508" text-anchor="middle" font-size="12" fill="#7dd3fc">System connectivity · Flows</text>
  </a>

  <!-- Data Structures -->
  <a href="https://github.com" target="_blank">
    <rect x="600" y="458" width="252" height="64" rx="10" fill="#0c2d4e" stroke="#1d6fa4" stroke-width="1"/>
    <text x="726" y="486" text-anchor="middle" font-size="17" font-weight="700" fill="#bae6fd">Data Structures</text>
    <text x="726" y="508" text-anchor="middle" font-size="12" fill="#7dd3fc">Relationships · Schemas</text>
  </a>

  <!-- Legend -->
  <rect x="60" y="565" width="14" height="14" rx="3" fill="#312e81" stroke="#4f46e5" stroke-width="1"/>
  <text x="82" y="577" font-size="12" fill="#8b949e">Data Analysis</text>

  <rect x="220" y="565" width="14" height="14" rx="3" fill="#6b1c07" stroke="#c2410c" stroke-width="1"/>
  <text x="242" y="577" font-size="12" fill="#8b949e">Business Analysis</text>

  <rect x="410" y="565" width="14" height="14" rx="3" fill="#0c2d4e" stroke="#1d6fa4" stroke-width="1"/>
  <text x="432" y="577" font-size="12" fill="#8b949e">Technical Knowledge</text>

  <rect x="650" y="565" width="14" height="14" rx="3" fill="#064e3b" stroke="#059669" stroke-width="1"/>
  <text x="672" y="577" font-size="12" fill="#8b949e">Core BA Role</text>

</svg>
