<svg xmlns="http://www.w3.org/2000/svg" width="800" viewBox="0 0 800 420" style="font-family:sans-serif;background:#ffffff">

  <!-- ROOT -->
  <rect x="275" y="16" width="250" height="46" rx="10" fill="#E1F5EE" stroke="#0F6E56" stroke-width="1"/>
  <text x="400" y="45" text-anchor="middle" font-size="15" font-weight="600" fill="#085041">Business Analyst</text>

  <!-- trunk -->
  <line x1="400" y1="62" x2="400" y2="90" stroke="#1D9E75" stroke-width="1.5"/>
  <line x1="140" y1="90" x2="660" y2="90" stroke="#aaa" stroke-width="1"/>

  <!-- pillar drops -->
  <line x1="140" y1="90" x2="140" y2="112" stroke="#7F77DD" stroke-width="1.5"/>
  <line x1="400" y1="90" x2="400" y2="112" stroke="#D85A30" stroke-width="1.5"/>
  <line x1="660" y1="90" x2="660" y2="112" stroke="#378ADD" stroke-width="1.5"/>

  <!-- PILLAR 1 — Data Analysis -->
  <rect x="62" y="112" width="156" height="38" rx="8" fill="#EEEDFE" stroke="#534AB7" stroke-width="1"/>
  <text x="140" y="136" text-anchor="middle" font-size="13" font-weight="600" fill="#3C3489">Data Analysis</text>
  <line x1="140" y1="150" x2="140" y2="168" stroke="#7F77DD" stroke-width="1"/>
  <line x1="74" y1="168" x2="206" y2="168" stroke="#7F77DD" stroke-width="0.8"/>

  <line x1="84" y1="168" x2="84" y2="182" stroke="#7F77DD" stroke-width="0.8"/>
  <rect x="40" y="182" width="88" height="46" rx="6" fill="#EEEDFE" stroke="#534AB7" stroke-width="0.8"/>
  <text x="84" y="200" text-anchor="middle" font-size="11" font-weight="600" fill="#3C3489">Excel</text>
  <text x="84" y="216" text-anchor="middle" font-size="10" fill="#534AB7">Pivot · XLOOKUP</text>

  <line x1="140" y1="168" x2="140" y2="182" stroke="#7F77DD" stroke-width="0.8"/>
  <rect x="104" y="182" width="72" height="46" rx="6" fill="#EEEDFE" stroke="#534AB7" stroke-width="0.8"/>
  <text x="140" y="200" text-anchor="middle" font-size="11" font-weight="600" fill="#3C3489">SQL</text>
  <text x="140" y="216" text-anchor="middle" font-size="10" fill="#534AB7">Joins · Queries</text>

  <line x1="196" y1="168" x2="196" y2="182" stroke="#7F77DD" stroke-width="0.8"/>
  <rect x="150" y="182" width="92" height="46" rx="6" fill="#EEEDFE" stroke="#534AB7" stroke-width="0.8"/>
  <text x="196" y="200" text-anchor="middle" font-size="11" font-weight="600" fill="#3C3489">Visualization</text>
  <text x="196" y="216" text-anchor="middle" font-size="10" fill="#534AB7">Tableau · Power BI</text>

  <!-- PILLAR 2 — Business Analysis -->
  <rect x="308" y="112" width="184" height="38" rx="8" fill="#FAECE7" stroke="#993C1D" stroke-width="1"/>
  <text x="400" y="136" text-anchor="middle" font-size="13" font-weight="600" fill="#712B13">Business Analysis</text>
  <line x1="400" y1="150" x2="400" y2="168" stroke="#D85A30" stroke-width="1"/>
  <line x1="318" y1="168" x2="482" y2="168" stroke="#D85A30" stroke-width="0.8"/>

  <line x1="336" y1="168" x2="336" y2="182" stroke="#D85A30" stroke-width="0.8"/>
  <rect x="276" y="182" width="120" height="46" rx="6" fill="#FAECE7" stroke="#993C1D" stroke-width="0.8"/>
  <text x="336" y="200" text-anchor="middle" font-size="11" font-weight="600" fill="#712B13">Requirements</text>
  <text x="336" y="216" text-anchor="middle" font-size="10" fill="#993C1D">Gathering · Stories</text>

  <line x1="400" y1="168" x2="400" y2="182" stroke="#D85A30" stroke-width="0.8"/>
  <rect x="342" y="182" width="116" height="46" rx="6" fill="#FAECE7" stroke="#993C1D" stroke-width="0.8"/>
  <text x="400" y="200" text-anchor="middle" font-size="11" font-weight="600" fill="#712B13">Process Mapping</text>
  <text x="400" y="216" text-anchor="middle" font-size="10" fill="#993C1D">AS-IS → TO-BE</text>

  <line x1="466" y1="168" x2="466" y2="182" stroke="#D85A30" stroke-width="0.8"/>
  <rect x="404" y="182" width="116" height="46" rx="6" fill="#FAECE7" stroke="#993C1D" stroke-width="0.8"/>
  <text x="462" y="200" text-anchor="middle" font-size="11" font-weight="600" fill="#712B13">Stakeholders</text>
  <text x="462" y="216" text-anchor="middle" font-size="10" fill="#993C1D">Comms · Alignment</text>

  <!-- PILLAR 3 — Technical Knowledge -->
  <rect x="572" y="112" width="176" height="38" rx="8" fill="#E6F1FB" stroke="#185FA5" stroke-width="1"/>
  <text x="660" y="136" text-anchor="middle" font-size="13" font-weight="600" fill="#0C447C">Technical Knowledge</text>
  <line x1="660" y1="150" x2="660" y2="168" stroke="#378ADD" stroke-width="1"/>
  <line x1="594" y1="168" x2="726" y2="168" stroke="#378ADD" stroke-width="0.8"/>

  <line x1="610" y1="168" x2="610" y2="182" stroke="#378ADD" stroke-width="0.8"/>
  <rect x="568" y="182" width="84" height="46" rx="6" fill="#E6F1FB" stroke="#185FA5" stroke-width="0.8"/>
  <text x="610" y="200" text-anchor="middle" font-size="11" font-weight="600" fill="#0C447C">ERP / SAP</text>
  <text x="610" y="216" text-anchor="middle" font-size="10" fill="#185FA5">Enterprise systems</text>

  <line x1="660" y1="168" x2="660" y2="182" stroke="#378ADD" stroke-width="0.8"/>
  <rect x="628" y="182" width="64" height="46" rx="6" fill="#E6F1FB" stroke="#185FA5" stroke-width="0.8"/>
  <text x="660" y="200" text-anchor="middle" font-size="11" font-weight="600" fill="#0C447C">APIs</text>
  <text x="660" y="216" text-anchor="middle" font-size="10" fill="#185FA5">Integrations</text>

  <line x1="714" y1="168" x2="714" y2="182" stroke="#378ADD" stroke-width="0.8"/>
  <rect x="670" y="182" width="88" height="46" rx="6" fill="#E6F1FB" stroke="#185FA5" stroke-width="0.8"/>
  <text x="714" y="200" text-anchor="middle" font-size="11" font-weight="600" fill="#0C447C">Data Structures</text>
  <text x="714" y="216" text-anchor="middle" font-size="10" fill="#185FA5">Schemas</text>

  <!-- Gap Analysis leaf under Process Mapping -->
  <line x1="400" y1="228" x2="400" y2="260" stroke="#D85A30" stroke-width="0.8"/>
  <rect x="330" y="260" width="140" height="36" rx="6" fill="#FAECE7" stroke="#993C1D" stroke-width="0.8"/>
  <text x="400" y="283" text-anchor="middle" font-size="11" font-weight="600" fill="#712B13">Gap Analysis</text>

  <!-- LEGEND -->
  <rect x="40" y="330" width="10" height="10" rx="2" fill="#EEEDFE" stroke="#534AB7" stroke-width="0.8"/>
  <text x="56" y="340" font-size="11" fill="#555">Data Analysis</text>
  <rect x="170" y="330" width="10" height="10" rx="2" fill="#FAECE7" stroke="#993C1D" stroke-width="0.8"/>
  <text x="186" y="340" font-size="11" fill="#555">Business Analysis</text>
  <rect x="330" y="330" width="10" height="10" rx="2" fill="#E6F1FB" stroke="#185FA5" stroke-width="0.8"/>
  <text x="346" y="340" font-size="11" fill="#555">Technical Knowledge</text>
  <rect x="510" y="330" width="10" height="10" rx="2" fill="#E1F5EE" stroke="#0F6E56" stroke-width="0.8"/>
  <text x="526" y="340" font-size="11" fill="#555">BA Role</text>

</svg>
